HIERARCHY
ROOT Hips
{
  OFFSET 0 0 0
  CHANNELS 6 Xposition Yposition Zposition Zrotation Xrotation Yrotation
  JOINT Spine
  {
    OFFSET 0 10.1816 0.131521
    CHANNELS 3 Zrotation Xrotation Yrotation
    JOINT Spine1
    {
      OFFSET 0 10.0835 -1.0008
      CHANNELS 3 Zrotation Xrotation Yrotation
      JOINT Spine2
      {
        OFFSET 0 9.10001 -1.37342
        CHANNELS 3 Zrotation Xrotation Yrotation
        JOINT Neck
        {
          OFFSET 0 16.6717 -2.51617
          CHANNELS 3 Zrotation Xrotation Yrotation
          JOINT Head
          {
            OFFSET 0 9.61788 1.68501
            CHANNELS 3 Zrotation Xrotation Yrotation
            End Site
            {
              OFFSET 0 10 0
            }
          }
        }
        JOINT LeftShoulder
        {
          OFFSET 4.57045 10.946 -2.62799
          CHANNELS 3 Zrotation Xrotation Yrotation
          JOINT LeftArm
          {
            OFFSET 10.5924 -0.524583 -2.23212
            CHANNELS 3 Zrotation Xrotation Yrotation
            JOINT LeftForeArm
            {
              OFFSET 27.8415 -8.94286e-05 3.74589e-05
              CHANNELS 3 Zrotation Xrotation Yrotation
              JOINT LeftHand
              {
                OFFSET 28.3288 -1.74407e-05 3.78045e-05
                CHANNELS 3 Zrotation Xrotation Yrotation
                End Site
                {
                  OFFSET 10 0 0
                }
              }
            }
          }
        }
        JOINT RightShoulder
        {
          OFFSET -4.56997 10.9462 -2.62802
          CHANNELS 3 Zrotation Xrotation Yrotation
          JOINT RightArm
          {
            OFFSET -10.5928 -0.524798 -2.2321
            CHANNELS 3 Zrotation Xrotation Yrotation
            JOINT RightForeArm
            {
              OFFSET -27.8415 -3.30792e-05 1.16763e-05
              CHANNELS 3 Zrotation Xrotation Yrotation
              JOINT RightHand
              {
                OFFSET -28.3288 0 5.5816e-05
                CHANNELS 3 Zrotation Xrotation Yrotation
                End Site
                {
                  OFFSET -10 0 0
                }
              }
            }
          }
        }
      }
    }
  }
  JOINT RightUpLeg
  {
    OFFSET -8.2078 -6.75166 -1.59956
    CHANNELS 3 Zrotation Xrotation Yrotation
    JOINT RightLeg
    {
      OFFSET 0 -44.3705 0.286156
      CHANNELS 3 Zrotation Xrotation Yrotation
      JOINT RightFoot
      {
        OFFSET 0 -44.4277 -2.98379
        CHANNELS 3 Zrotation Xrotation Yrotation
        JOINT RightToeBase
        {
          OFFSET 0 -8.72867 10.7106
          CHANNELS 3 Zrotation Xrotation Yrotation
          End Site
          {
            OFFSET 0 0 9
          }
        }
      }
    }
  }
  JOINT LeftUpLeg
  {
    OFFSET 8.20778 -6.75171 -1.59956
    CHANNELS 3 Zrotation Xrotation Yrotation
    JOINT LeftLeg
    {
      OFFSET 0 -44.3705 0.284643
      CHANNELS 3 Zrotation Xrotation Yrotation
      JOINT LeftFoot
      {
        OFFSET 0 -44.4279 -2.98219
        CHANNELS 3 Zrotation Xrotation Yrotation
        JOINT LeftToeBase
        {
          OFFSET 0 -8.72867 10.7106
          CHANNELS 3 Zrotation Xrotation Yrotation
          End Site
          {
            OFFSET 0 0 9
          }
        }
      }
    }
  }
}
MOTION
Frames:	10
Frame Time:	0.0333333
0.102247 92.8636 -0.205155 -2.9559 -3.32422 -43.1934 -1.21468 5.73356 4.68632 -3.10367 11.3354 9.66182 -3.10367 11.3354 9.66182 0.206838 -4.30756 -1.25739 -0.35564 -6.40351 20.3985 -4.51895 1.44301 -0.584156 -51.9498 -12.275 -8.89358 0.0200403 -6.37422 -47.8968 19.3476 15.065 -7.65647 6.35078 2.45761 9.24694 43.6973 -16.6237 -19.2155 10.2505 -11.0016 40.7032 11.3226 6.75716 11.7959 -14.3957 -1.90364 -15.1837 -1.89237 34.2308 -7.94155 18.2836 -21.0952 2.61432 0.333326 -1.787 -0.346316 14.9127 -24.7969 12.3705 0.171277 34.8968 -15.3163 -7.77983 -5.5571 1.11814 0.80237 -2.36391 -3.18424 
0.361904 92.0987 -1.76477 -3.07398 -0.327243 -38.9351 -0.805641 5.8927 4.10107 -2.33887 11.6986 8.45046 -2.33887 11.6986 8.45045 -0.859043 -3.48984 -1.03454 1.32759 -9.21317 16.1469 -5.13082 2.1323 -2.54337 -42.7069 -13.1434 -18.6047 0.279902 -0.93813 -30.1558 15.8919 9.23251 -11.6587 6.87132 1.52789 13.3744 43.2315 -15.8549 -6.66525 3.83981 -6.3833 36.7608 -0.302238 10.5566 9.37404 -12.8465 -6.00098 -19.1434 -1.65458 39.7789 -3.15739 12.2049 -23.6598 0.999863 2.47079 -4.88919 -1.83087 16.7811 -31.1719 12.2947 2.07058 38.5132 -16.5775 -10.2227 -5.79409 1.18105 1.01834 -2.52411 -3.46462 
0.821953 90.6017 -2.94338 -3.53045 5.19893 -35.4544 -0.458255 5.93911 3.59616 -1.86518 11.8189 7.33697 -1.86517 11.8189 7.33696 -1.53379 -2.70838 -0.650377 3.33534 -12.6425 12.199 -5.1168 2.96567 -3.54706 -33.2318 -14.8555 -18.6363 -1.71191 -0.229124 -21.4564 13.0486 2.63664 -11.2381 6.35423 1.50053 17.7477 37.6879 -18.6135 3.47489 -0.212406 -2.48062 29.0559 -5.39478 9.75315 4.8568 -9.93933 -13.8568 -22.1574 -3.35711 47.3633 1.46799 7.2721 -24.5392 -0.516101 5.4325 -8.19103 -3.43049 21.8001 -40.9757 15.0876 3.6745 45.8346 -17.3981 -9.17075 -5.1762 1.0049 1.07952 -2.63748 -3.53205 
1.14352 88.5257 -3.7942 -2.08023 12.5631 -33.2805 -0.414858 5.56643 3.30017 -1.82047 11.0823 6.58608 -1.82047 11.0823 6.58607 -1.7722 -2.9596 -0.46946 5.25559 -16.6323 8.29487 -4.1467 3.81265 -3.64569 -24.5356 -13.401 -7.36013 -6.22668 -1.0279 -23.5509 11.8119 -1.93694 -5.44103 4.63583 1.68476 21.1619 29.5617 -22.6527 3.1704 -1.46788 -0.476651 24.6386 -4.64509 8.54618 -3.35191 -8.26094 -25.4297 -23.3623 -5.34086 55.7744 5.00803 2.91134 -24.8949 -2.01361 8.62119 -11.6246 -5.10168 28.5853 -52.5679 20.4467 5.0312 51.0373 -18.9639 -7.06795 -4.90874 0.804506 0.826106 -2.65364 -3.16292 
1.38724 85.6455 -4.27129 1.203 22.5689 -32.5112 -0.548709 4.75307 3.2843 -2.04983 9.4542 6.32876 -2.04983 9.4542 6.32877 -1.94234 -4.74225 -0.816451 6.21503 -20.1061 4.36311 -3.42105 4.84425 -2.49186 -18.3781 -6.96827 10.9834 -11.5899 0.757947 -31.9046 11.2941 -2.10693 2.96932 2.62915 1.75894 21.5563 20.6198 -23.5048 -8.87436 -2.23034 1.68392 25.0513 -0.730778 11.7286 -10.8436 -7.41674 -40.2921 -23.127 -5.69672 63.8371 5.12555 1.39335 -25.7062 -3.19114 9.81869 -13.796 -5.26326 44.5809 -66.4046 35.0114 6.4821 57.0351 -20.5876 -5.95788 -5.81541 0.527655 0.476419 -2.70261 -2.75616 
1.63998 81.9995 -4.87195 5.82923 33.2876 -33.1865 -0.702707 3.92432 3.42321 -2.20575 7.79541 6.38965 -2.20576 7.79543 6.38965 -3.01909 -6.84856 -1.72202 5.81815 -21.8933 0.586624 -4.40962 6.12453 0.442775 -17.3309 -0.594509 28.3335 -13.4008 3.97223 -36.1309 10.9329 1.66227 8.27168 1.46064 1.92123 17.7961 12.61 -20.2207 -26.4574 -4.77338 6.68995 26.0761 0.855225 20.6042 -12.8654 -8.05108 -56.302 -23.2397 -5.28702 71.5926 2.97501 3.01002 -27.7933 -2.8537 9.4318 -13.4866 -4.69245 91.8156 -75.2665 81.147 7.54999 62.9922 -22.1692 -5.03617 -6.54802 0.427874 0.438744 -2.72691 -2.58691 
1.78958 78.0944 -5.75214 11.1193 41.6648 -34.7373 -0.722503 3.60602 3.50858 -2.01545 7.16343 6.50427 -2.01545 7.16342 6.50427 -5.76181 -7.11454 -2.92046 4.70779 -22.0754 -2.93449 -5.86513 7.01124 4.61834 -21.2263 0.0996171 39.7644 -10.0996 4.3528 -30.0096 11.9108 6.46238 7.74929 1.00574 2.11019 11.518 8.1332 -14.8884 -42.3807 -9.10894 14.3237 22.8572 -4.07486 29.5739 -6.77112 -14.6275 -70.0104 -28.6161 -4.07385 79.5117 0.281837 3.57613 -30.7331 -2.55939 8.676 -12.169 -3.3532 139.684 -69.9979 128.998 7.59957 68.2048 -23.2784 -4.44205 -6.61282 0.414052 0.342472 -2.79313 -2.43304 
1.84446 73.8518 -7.08519 12.7102 44.3961 -33.4343 -0.534348 3.98588 3.48319 -1.48414 7.93382 6.58252 -1.48413 7.93384 6.58251 -9.01088 -5.10122 -4.02136 3.77219 -21.3698 -5.92521 -4.48427 7.07122 7.74165 -29.3003 -3.49033 45.8791 -4.4615 3.27586 -16.933 14.0358 8.9834 4.04771 0.550326 2.17377 5.99792 9.48375 -9.4554 -54.0653 -12.9362 21.7094 15.647 -10.8604 32.6913 1.22848 -31.8271 -76.1732 -44.535 8.77641 88.3147 -11.499 4.12887 -34.7542 -2.20299 8.89622 -12.735 -3.58601 156.124 -63.4171 146.241 10.8886 74.1296 -27.8256 -3.54074 -6.71603 0.444821 0.267034 -2.86552 -2.30763 
2.17173 69.5097 -8.57172 12.1971 42.7919 -32.4204 -0.29388 4.80761 3.44488 -0.934625 9.5903 6.60732 -0.934623 9.59031 6.60731 -10.1369 -3.37536 -4.72177 3.43913 -20.5757 -7.64638 0.285366 6.52726 7.61139 -40.6418 -8.16686 51.4776 -2.07265 1.33946 -6.61768 15.198 7.98473 2.49285 0.500612 2.32172 2.97336 16.4157 -5.883 -63.2076 -14.4398 24.0124 10.5492 -12.0925 31.9999 1.56252 -47.0025 -77.9627 -59.2692 -174.511 82.5884 171.564 3.87458 -39.0227 -1.76432 8.39161 -12.9141 -3.30105 160.168 -59.0584 151.307 18.447 80.2694 -37.2459 -3.5607 -6.92415 0.578184 0.137887 -2.92315 -2.10651 
2.16022 65.9899 -9.59767 10.2096 39.3587 -30.2049 -0.213262 5.59621 3.31405 -0.683392 11.1741 6.46376 -0.683391 11.1741 6.46376 -8.3113 -5.14369 -4.9857 3.7931 -21.1474 -7.86209 4.27337 5.3983 3.74526 -51.0031 -13.9003 58.1909 -3.9993 -2.98864 -5.13113 13.9146 4.90086 5.94332 2.05771 2.70754 1.90365 25.5712 -6.53459 -70.3128 -14.4457 19.1853 12.6768 -10.8929 28.4337 -3.51005 -53.1245 -76.3268 -65.1732 -174.41 75.1114 171.917 3.70027 -41.7839 -1.37389 8.52467 -14.1958 -3.42244 161.083 -57.6194 153.436 40.9465 84.7663 -61.7887 -3.52631 -7.09809 0.722449 -0.00742073 -2.9768 -1.88196 
